<svg width="19" height="20" viewBox="0 0 19 20" fill="none" xmlns="http://www.w3.org/2000/svg">
<path d="M12.0137 14H6.74023V13.3496C6.74023 13.084 6.77734 12.8359 6.85156 12.6055C6.92578 12.3711 7.02539 12.1523 7.15039 11.9492C7.27539 11.7422 7.42188 11.5488 7.58984 11.3691C7.75781 11.1855 7.9375 11.0098 8.12891 10.8418C8.32031 10.6699 8.51562 10.5059 8.71484 10.3496C8.91406 10.1895 9.10938 10.0293 9.30078 9.86914C9.48047 9.7168 9.64453 9.56836 9.79297 9.42383C9.94141 9.27539 10.0684 9.12305 10.1738 8.9668C10.2793 8.81055 10.3613 8.64648 10.4199 8.47461C10.4785 8.29883 10.5078 8.10938 10.5078 7.90625C10.5078 7.68359 10.4727 7.49023 10.4023 7.32617C10.3359 7.1582 10.2402 7.01953 10.1152 6.91016C9.99414 6.79688 9.84961 6.71289 9.68164 6.6582C9.51367 6.59961 9.33008 6.57031 9.13086 6.57031C8.78711 6.57031 8.4375 6.65039 8.08203 6.81055C7.72656 6.9707 7.38477 7.21094 7.05664 7.53125V6.22461C7.22852 6.0957 7.40234 5.98438 7.57812 5.89062C7.75391 5.79297 7.93555 5.71289 8.12305 5.65039C8.31055 5.58398 8.50781 5.53516 8.71484 5.50391C8.92188 5.47266 9.14258 5.45703 9.37695 5.45703C9.75586 5.45703 10.0996 5.50781 10.4082 5.60938C10.7168 5.70703 10.9805 5.85352 11.1992 6.04883C11.418 6.24023 11.5859 6.48047 11.7031 6.76953C11.8242 7.05859 11.8848 7.39062 11.8848 7.76562C11.8848 8.10547 11.8418 8.41211 11.7559 8.68555C11.6738 8.95508 11.5547 9.20703 11.3984 9.44141C11.2461 9.67578 11.0605 9.89844 10.8418 10.1094C10.623 10.3203 10.3789 10.5371 10.1094 10.7598C9.88281 10.9434 9.65625 11.123 9.42969 11.2988C9.20703 11.4707 9.00586 11.6406 8.82617 11.8086C8.64648 11.9727 8.5 12.1387 8.38672 12.3066C8.27734 12.4707 8.22266 12.6367 8.22266 12.8047V12.834H12.0137V14Z" fill="#555555"/>
<rect x="0.5" y="0.5" width="18" height="19" rx="3.5" stroke="#7B8AAB"/>
</svg>
