<svg width="72" height="20" viewBox="0 0 72 20" fill="none" xmlns="http://www.w3.org/2000/svg">
<path d="M0 4C0 1.79086 1.79086 0 4 0H60V20H4C1.79086 20 0 18.2091 0 16V4Z" fill="#EBEEF6"/>
<path d="M11.5723 6.78125H8.43164V9.30664H11.3262V10.4844H8.43164V14H7.03711V5.59766H11.5723V6.78125ZM16.4004 9.29492C16.2363 9.16602 16 9.10156 15.6914 9.10156C15.2891 9.10156 14.9531 9.2832 14.6836 9.64648C14.4141 10.0098 14.2793 10.5039 14.2793 11.1289V14H12.9199V8H14.2793V9.23633H14.3027C14.4355 8.81445 14.6387 8.48633 14.9121 8.25195C15.1895 8.01367 15.498 7.89453 15.8379 7.89453C16.084 7.89453 16.2715 7.93164 16.4004 8.00586V9.29492ZM19.916 14.1406C18.9902 14.1406 18.25 13.8613 17.6953 13.3027C17.1445 12.7402 16.8691 11.9961 16.8691 11.0703C16.8691 10.0625 17.1562 9.27539 17.7305 8.70898C18.3086 8.14258 19.0859 7.85938 20.0625 7.85938C21 7.85938 21.7305 8.13477 22.2539 8.68555C22.7773 9.23633 23.0391 10 23.0391 10.9766C23.0391 11.9336 22.7559 12.7012 22.1895 13.2793C21.627 13.8535 20.8691 14.1406 19.916 14.1406ZM19.9805 8.94336C19.4492 8.94336 19.0293 9.12891 18.7207 9.5C18.4121 9.87109 18.2578 10.3828 18.2578 11.0352C18.2578 11.6641 18.4141 12.1602 18.7266 12.5234C19.0391 12.8828 19.457 13.0625 19.9805 13.0625C20.5156 13.0625 20.9258 12.8848 21.2109 12.5293C21.5 12.1738 21.6445 11.668 21.6445 11.0117C21.6445 10.3516 21.5 9.8418 21.2109 9.48242C20.9258 9.12305 20.5156 8.94336 19.9805 8.94336ZM29.7715 14H28.4121V10.6191C28.4121 9.49805 28.0156 8.9375 27.2227 8.9375C26.8086 8.9375 26.4668 9.09375 26.1973 9.40625C25.9277 9.71484 25.793 10.1055 25.793 10.5781V14H24.4277V8H25.793V8.99609H25.8164C26.2656 8.23828 26.9141 7.85938 27.7617 7.85938C28.4141 7.85938 28.9121 8.07227 29.2559 8.49805C29.5996 8.91992 29.7715 9.53125 29.7715 10.332V14ZM34.5996 13.9355C34.334 14.0684 33.9844 14.1348 33.5508 14.1348C32.3867 14.1348 31.8047 13.5762 31.8047 12.459V9.06641H30.8027V8H31.8047V6.61133L33.1641 6.22461V8H34.5996V9.06641H33.1641V12.0664C33.1641 12.4219 33.2285 12.6758 33.3574 12.8281C33.4863 12.9805 33.7012 13.0566 34.002 13.0566C34.2324 13.0566 34.4316 12.9902 34.5996 12.8574V13.9355ZM38.3203 11.2227H35.1211V10.2207H38.3203V11.2227ZM45.0703 11.3691H40.9805C40.9961 11.9238 41.166 12.3516 41.4902 12.6523C41.8184 12.9531 42.2676 13.1035 42.8379 13.1035C43.4785 13.1035 44.0664 12.9121 44.6016 12.5293V13.625C44.0547 13.9688 43.332 14.1406 42.4336 14.1406C41.5508 14.1406 40.8574 13.8691 40.3535 13.3262C39.8535 12.7793 39.6035 12.0117 39.6035 11.0234C39.6035 10.0898 39.8789 9.33008 40.4297 8.74414C40.9844 8.1543 41.6719 7.85938 42.4922 7.85938C43.3125 7.85938 43.9473 8.12305 44.3965 8.65039C44.8457 9.17773 45.0703 9.91016 45.0703 10.8477V11.3691ZM43.7578 10.4082C43.7539 9.91992 43.6387 9.54102 43.4121 9.27148C43.1855 8.99805 42.873 8.86133 42.4746 8.86133C42.084 8.86133 41.752 9.00391 41.4785 9.28906C41.209 9.57422 41.043 9.94727 40.9805 10.4082H43.7578ZM51.709 14H50.3496V10.6191C50.3496 9.49805 49.9531 8.9375 49.1602 8.9375C48.7461 8.9375 48.4043 9.09375 48.1348 9.40625C47.8652 9.71484 47.7305 10.1055 47.7305 10.5781V14H46.3652V8H47.7305V8.99609H47.7539C48.2031 8.23828 48.8516 7.85938 49.6992 7.85938C50.3516 7.85938 50.8496 8.07227 51.1934 8.49805C51.5371 8.91992 51.709 9.53125 51.709 10.332V14ZM58.8281 14H57.4688V12.9805H57.4453C57.0078 13.7539 56.334 14.1406 55.4238 14.1406C54.6855 14.1406 54.0938 13.873 53.6484 13.3379C53.207 12.7988 52.9863 12.0664 52.9863 11.1406C52.9863 10.1484 53.2305 9.35352 53.7188 8.75586C54.2109 8.1582 54.8652 7.85938 55.6816 7.85938C56.4902 7.85938 57.0781 8.18359 57.4453 8.83203H57.4688V5.11719H58.8281V14ZM57.4863 11.2578V10.4727C57.4863 10.0469 57.3477 9.68555 57.0703 9.38867C56.793 9.0918 56.4395 8.94336 56.0098 8.94336C55.502 8.94336 55.1016 9.13281 54.8086 9.51172C54.5195 9.89062 54.375 10.416 54.375 11.0879C54.375 11.6973 54.5137 12.1797 54.791 12.5352C55.0723 12.8867 55.4492 13.0625 55.9219 13.0625C56.3867 13.0625 56.7637 12.8926 57.0527 12.5527C57.3418 12.209 57.4863 11.7773 57.4863 11.2578Z" fill="#616C82"/>
<path d="M60 0H62.0775C63.2926 0 64.4419 0.552359 65.201 1.50122L70.001 7.50122C71.1697 8.96209 71.1697 11.0379 70.001 12.4988L65.201 18.4988C64.4419 19.4476 63.2926 20 62.0775 20H60V0Z" fill="#EBEEF6"/>
</svg>
